{"title":"Surrogates-720p MP4 AAC BRRip 2009-CC","uid":7082063,"size":1941094580,"categoryP":"video","categoryS":"hd___movies","magnet":"?xt=urn:btih:ef8dddd51dc7a16c0594a6da01548b37a1e865f7&amp;dn=Surrogates-720p+MP4+AAC+BRRip+2009-CC&amp;tr=udp%3A%2F%2Ftracker.openbittorrent.com%3A80&amp;tr=udp%3A%2F%2Fopen.demonii.com%3A1337&amp;tr=udp%3A%2F%2Ftracker.coppersurfer.tk%3A6969&amp;tr=udp%3A%2F%2Fexodus.desync.com%3A6969","seeders":0,"leechers":1,"uploader":"Caveman44","files":39,"time":1331068429,"description":"Source: Surrogates.2009.720p.BluRay.x264.DTS-WiKi\n\nSubs: Arabic, Brazilian, Croatian, Czech, Danish, Dutch, English, Farsi-Persian, Finnish, French, Greek, Hebrew, Hungarian, Indonesian, Malay, Norwegian, Portuguese, Romanian, Spanish, Swedish, Turkish and Vietnamese.\n\nSample and Screens included.\n\nGeneral\nComplete name                    : Surrogates-720p MP4 AAC BRRip 2009-CC.mp4\nFormat                           : MPEG-4\nFormat profile                   : Base Media\nCodec ID                         : isom\nFile size                        : 1.78 GiB\nDuration                         : 1h 28mn\nOverall bit rate                 : 2 882 Kbps\n\nVideo\nID                               : 1\nFormat                           : AVC\nFormat/Info                      : Advanced Video Codec\nFormat profile                   : &lt;a class=&quot;__cf_email__&quot; href=&quot;/cdn-cgi/l/email-protection&quot; data-cfemail=&quot;256d4c424d6569160b14&quot;&gt;[email&amp;#160;protected]&lt;/a&gt;&lt;script cf-hash='f9e31' type=&quot;text/javascript&quot;&gt;\n/* &lt;![CDATA[ */!function(){try{var t=&quot;currentScript&quot;in document?document.currentScript:function(){for(var t=document.getElementsByTagName(&quot;script&quot;),e=t.length;e--;)if(t[e].getAttribute(&quot;cf-hash&quot;))return t[e]}();if(t&amp;&amp;t.previousSibling){var e,r,n,i,c=t.previousSibling,a=c.getAttribute(&quot;data-cfemail&quot;);if(a){for(e=&quot;&quot;,r=parseInt(a.substr(0,2),16),n=2;a.length-n;n+=2)i=parseInt(a.substr(n,2),16)^r,e+=String.fromCharCode(i);e=document.createTextNode(e),c.parentNode.replaceChild(e,c)}}}catch(u){}}();/* ]]&gt; */&lt;/script&gt;\nFormat settings, CABAC           : Yes\nFormat settings, ReFrames        : 5 frames\nCodec ID                         : avc1\nCodec ID/Info                    : Advanced Video Coding\nDuration                         : 1h 28mn\nBit rate mode                    : Variable\nBit rate                         : 2 431 Kbps\nNominal bit rate                 : 2 498 Kbps\nMaximum bit rate                 : 19.8 Mbps\nWidth                            : 1 280 pixels\nHeight                           : 528 pixels\nDisplay aspect ratio             : 2.35:1\nFrame rate mode                  : Variable\nFrame rate                       : 23.976 fps\nMinimum frame rate               : 15.873 fps\nMaximum frame rate               : 24.390 fps\nResolution                       : 24 bits\nColorimetry                      : 4:2:0\nScan type                        : Progressive\nBits/(Pixel*Frame)               : 0.150\nStream size                      : 1.50 GiB (84%)\nWriting library                  : x264 core 112\n\n\nAudio\nID                               : 2\nFormat                           : AAC\nFormat/Info                      : Advanced Audio Codec\nFormat version                   : Version 4\nFormat profile                   : LC\nFormat settings, SBR             : No\nCodec ID                         : 40\nDuration                         : 1h 28mn\nBit rate mode                    : Variable\nBit rate                         : 446 Kbps\nMaximum bit rate                 : 836 Kbps\nChannel(s)                       : 6 channels\nChannel positions                : Front: L C R, Rear: L R, LFE\nSampling rate                    : 48.0 KHz\nResolution                       : 16 bits\nStream size                      : 283 MiB (15%)\nLanguage                         : English\n","torrent":{"xt":"urn:btih:ef8dddd51dc7a16c0594a6da01548b37a1e865f7","amp;dn":"Surrogates-720p+MP4+AAC+BRRip+2009-CC","amp;tr":["udp%3A%2F%2Ftracker.openbittorrent.com%3A80","udp%3A%2F%2Fopen.demonii.com%3A1337","udp%3A%2F%2Ftracker.coppersurfer.tk%3A6969","udp%3A%2F%2Fexodus.desync.com%3A6969"],"infoHash":"ef8dddd51dc7a16c0594a6da01548b37a1e865f7","infoHashBuffer":{"type":"Buffer","data":[239,141,221,213,29,199,161,108,5,148,166,218,1,84,139,55,161,232,101,247]},"announce":[],"urlList":[]}}